<svg id="e15ubjloqk8g1" xmlns="http://www.w3.org/2000/svg" xmlns:xlink="http://www.w3.org/1999/xlink" viewBox="0 0 4859.380000 2847.730000" shape-rendering="geometricPrecision" text-rendering="geometricPrecision" width="4859.380000" height="2847.730000"><style><![CDATA[#e15ubjloqk8g6_to {animation: e15ubjloqk8g6_to__to 10000ms linear infinite normal forwards}@keyframes e15ubjloqk8g6_to__to { 0% {transform: translate(-1.415402px,-2.917463px)} 100% {transform: translate(-1.415402px,-2.917463px)} }#e15ubjloqk8g6_tr {animation: e15ubjloqk8g6_tr__tr 10000ms linear infinite normal forwards}@keyframes e15ubjloqk8g6_tr__tr { 0% {transform: rotate(0deg)} 100% {transform: rotate(-5.208813deg)} }#e15ubjloqk8g8_to {animation: e15ubjloqk8g8_to__to 10000ms linear infinite normal forwards}@keyframes e15ubjloqk8g8_to__to { 0% {transform: translate(-346.401177px,-1.969482px)} 100% {transform: translate(-1.275257px,-2.917463px)} }#e15ubjloqk8g8_tr {animation: e15ubjloqk8g8_tr__tr 10000ms linear infinite normal forwards}@keyframes e15ubjloqk8g8_tr__tr { 0% {transform: rotate(-18.684100deg)} 100% {transform: rotate(5.026516deg)} }#e15ubjloqk8g9_to {animation: e15ubjloqk8g9_to__to 10000ms linear infinite normal forwards}@keyframes e15ubjloqk8g9_to__to { 0% {transform: translate(-61.030497px,-172.631570px)} 100% {transform: translate(-1.415402px,-2.917463px)} }#e15ubjloqk8g12_to {animation: e15ubjloqk8g12_to__to 10000ms linear infinite normal forwards}@keyframes e15ubjloqk8g12_to__to { 0% {transform: translate(-353.453259px,-372.210773px)} 30% {transform: translate(-466.309063px,-136.288258px)} 100% {transform: translate(-466.309063px,-136.288258px)} }#e15ubjloqk8g12_tr {animation: e15ubjloqk8g12_tr__tr 10000ms linear infinite normal forwards}@keyframes e15ubjloqk8g12_tr__tr { 0% {transform: rotate(110.185459deg)} 30% {transform: rotate(98.634507deg)} 100% {transform: rotate(98.634507deg)} }#e15ubjloqk8g13_to {animation: e15ubjloqk8g13_to__to 10000ms linear infinite normal forwards}@keyframes e15ubjloqk8g13_to__to { 0% {offset-distance: 0%} 100% {offset-distance: 100%} }#e15ubjloqk8g15_to {animation: e15ubjloqk8g15_to__to 10000ms linear infinite normal forwards}@keyframes e15ubjloqk8g15_to__to { 0% {offset-distance: 0%} 80% {offset-distance: 100%} 100% {offset-distance: 100%} }#e15ubjloqk8g17_to {animation: e15ubjloqk8g17_to__to 10000ms linear infinite normal forwards}@keyframes e15ubjloqk8g17_to__to { 0% {offset-distance: 0%} 100% {offset-distance: 100%} }#e15ubjloqk8g30_to {animation: e15ubjloqk8g30_to__to 10000ms linear infinite normal forwards}@keyframes e15ubjloqk8g30_to__to { 0% {offset-distance: 0%} 100% {offset-distance: 100%} }]]></style><defs><linearGradient id="e15ubjloqk8g12-fill" x1="376.108571" y1="269.928600" x2="292.148570" y2="244.128600" spreadMethod="pad" gradientUnits="userSpaceOnUse"><stop id="e15ubjloqk8g12-fill-0" offset="0%" stop-color="rgb(255,255,255)"/><stop id="e15ubjloqk8g12-fill-1" offset="100%" stop-color="rgba(255,255,255,0)"/></linearGradient><linearGradient id="e15ubjloqk8g14-fill" x1="1382.043547" y1="255.006066" x2="1254.043549" y2="571.566078" spreadMethod="pad" gradientUnits="userSpaceOnUse"><stop id="e15ubjloqk8g14-fill-0" offset="0%" stop-color="rgb(255,255,255)"/><stop id="e15ubjloqk8g14-fill-1" offset="100%" stop-color="rgba(255,255,255,0)"/></linearGradient></defs><g id="e15ubjloqk8g2" style="isolation:isolate"><g id="e15ubjloqk8g3"><rect id="e15ubjloqk8g4" width="1919.470000" height="1079.930000" rx="0" ry="0" transform="matrix(4.63270380063095 0 0 11.23018568953000 -2200.43851566915055 -4176.75710227836043)" fill="rgb(1,93,216)" stroke="none" stroke-width="1"/></g><g id="e15ubjloqk8g5"><g id="e15ubjloqk8g6_to" transform="translate(-1.415402,-2.917463)"><g id="e15ubjloqk8g6_tr" transform="rotate(0)"><path id="e15ubjloqk8g6" d="M1409.710000,327.230000C1402.439166,353.941071,1397.187687,381.161182,1394,408.660000L1393,419C1392.650000,422.430000,1392.180000,425.860000,1392.070000,429.330000L1390.860000,450C1390.680000,463.840000,1390.380000,477.670000,1391.300000,491.500000L1391.770000,501.870000C1392.040000,505.310000,1392.420000,508.750000,1392.770000,512.190000L1393.770000,522.520000L1394.280000,527.690000C1394.500000,529.400000,1394.790000,531.110000,1395.040000,532.820000L1398.210000,553.340000L1402.500000,573.640000C1408.853096,600.581782,1417.442888,626.946555,1428.180000,652.460000C1439.150061,677.879362,1452.159186,702.369290,1467.080000,725.690000L1472.740000,734.370000C1474.640000,737.260000,1476.490000,740.180000,1478.580000,742.950000L1490.750000,759.740000L1503.750000,775.950000C1504.840000,777.300000,1505.890000,778.670000,1507.010000,779.950000L1510.440000,783.830000L1517.300000,791.610000C1535.754662,812.232071,1555.709076,831.461174,1577,849.140000C1598.404028,866.669525,1621.009318,882.678681,1644.650000,897.050000C1650.650000,900.520000,1656.500000,904.210000,1662.560000,907.520000L1680.860000,917.330000C1693.270000,923.410000,1705.690000,929.530000,1718.470000,934.770000C1743.945437,945.559835,1770.162873,954.506180,1796.920000,961.540000C1823.715087,968.418457,1850.978033,973.324918,1878.490000,976.220000C1885.390000,976.790000,1892.260000,977.650000,1899.170000,977.990000L1919.890000,978.930000L1940.620000,978.930000C1942.350000,978.930000,1944.090000,978.930000,1945.820000,978.930000L1950.980000,978.660000L1961.340000,978.130000C1985.503971,976.679353,2009.532494,973.494488,2033.240000,968.600000C2036.620000,967.900000,2039.990000,967.180000,2043.360000,966.400000C2097.210000,953.690000,2149.470000,935.060000,2200.670000,914.230000C2251.940000,893.550000,2302.420000,870.740000,2354.670000,852.510000C2380.770000,843.440000,2407.380000,835.630000,2434.530000,830.510000C2461.680000,825.390000,2489.430000,823.040000,2517.010000,824.830000C2544.621620,826.585774,2571.818858,832.436382,2597.710000,842.190000C2623.600000,851.860000,2648.020000,865.190000,2670.950000,880.550000C2676.590000,884.550000,2682.340000,888.370000,2687.880000,892.480000L2704.190000,905.270000C2715,913.870000,2725.360000,923.020000,2735.700000,932.200000C2756.300000,950.630000,2776.270000,969.750000,2796.160000,988.960000C2835.940000,1027.340000,2875.360000,1066.280000,2918.250000,1101.270000C2939.730000,1118.710000,2962.100000,1135.110000,2985.860000,1149.340000C3009.620000,1163.570000,3034.780000,1175.550000,3061.370000,1183.460000C3087.951356,1191.549936,3115.746491,1194.910940,3143.490000,1193.390000C3171.180000,1191.810000,3198.490000,1185.070000,3224.110000,1174.670000C3236.915892,1169.393557,3249.394827,1163.356116,3261.480000,1156.590000C3273.590000,1149.860000,3285.210000,1142.280000,3296.590000,1134.410000C3302.210000,1130.410000,3307.880000,1126.410000,3313.300000,1122.090000C3316.030000,1119.950000,3318.850000,1117.940000,3321.490000,1115.690000L3329.490000,1109.040000C3339.865842,1099.842839,3349.583073,1089.928457,3358.570000,1079.370000C3394.310000,1036.930000,3417.890000,984.710000,3427.630000,930.190000C3432.556396,902.863559,3433.713835,874.990802,3431.070000,847.350000C3429.640045,833.557469,3427.220476,819.885570,3423.830000,806.440000C3420.290821,793.019860,3415.665560,779.909940,3410,767.240000C3404.355805,754.555116,3397.560709,742.414321,3389.700000,730.970000C3387.700000,728.130000,3385.880000,725.170000,3383.700000,722.450000L3377.390000,714.180000C3372.910000,708.880000,3368.560000,703.470000,3363.710000,698.500000C3354.244827,688.356673,3344.011121,678.958781,3333.100000,670.390000C3322.224893,661.778118,3310.804410,653.878310,3298.910000,646.740000Q3281.070000,636.090000,3262.240000,627.200000C3249.670000,621.350000,3236.890000,616.020000,3223.960000,611.090000C3211.030000,606.160000,3197.850000,601.820000,3184.650000,597.670000C3171.450000,593.520000,3158.130000,589.790000,3144.760000,586.180000C3091.320000,571.810000,3037,561,2983.720000,546.440000C2877.015156,517.129076,2774.318276,474.811701,2677.940000,420.440000C2653.890000,406.860000,2630.130000,392.730000,2606.940000,377.660000L2598.210000,372.070000L2589.610000,366.300000L2572.410000,354.750000C2561.120000,346.750000,2549.680000,339.020000,2538.540000,330.840000C2493.700000,298.540000,2450.220000,264.340000,2406.680000,230.270000C2363.140000,196.200000,2319.550000,162.100000,2274.380000,130.120000Q2240.640000,105.960000,2205.480000,83.830000L2187.890000,73C2181.950000,69.420000,2175.890000,66,2169.950000,62.540000L2160.950000,57.330000C2157.950000,55.610000,2154.860000,54.030000,2151.830000,52.380000L2133.560000,42.520000C2084.340000,17.270000,2033,-4.360000,1979.390000,-18.370000C1966.100000,-22.240000,1952.470000,-24.800000,1938.970000,-27.800000C1932.160000,-29.080000,1925.290000,-30.060000,1918.470000,-31.210000L1908.220000,-32.860000L1897.890000,-34C1870.400000,-37.530000,1842.590000,-37.740000,1814.960000,-36.370000L1794.250000,-34.700000C1790.800000,-34.530000,1787.390000,-33.790000,1783.960000,-33.340000L1773.690000,-31.800000L1763.420000,-30.270000C1760,-29.680000,1756.650000,-28.810000,1753.250000,-28.100000L1743.110000,-25.870000L1738,-24.710000L1733,-23.270000C1706.180000,-16.270000,1680.350000,-5.750000,1655.790000,7.010000C1631.230155,19.835984,1607.936703,34.953122,1586.220000,52.160000C1564.688680,69.586625,1544.643014,88.772666,1526.290000,109.520000L1519.480000,117.360000C1517.220000,119.980000,1514.900000,122.550000,1512.810000,125.360000L1500,141.710000L1488,158.600000L1485,162.840000L1482.200000,167.200000L1476.590000,175.940000L1471.010000,184.690000L1465.820000,193.690000C1462.420000,199.690000,1458.740000,205.590000,1455.700000,211.800000C1452.660000,218.010000,1449.270000,224.050000,1446.200000,230.270000L1437.510000,249.120000C1426.430177,274.475337,1417.140758,300.575931,1409.710000,327.230000Z" transform="translate(0,0)" fill="rgb(7,105,217)" stroke="none" stroke-width="1"/></g></g></g><g id="e15ubjloqk8g7"><g id="e15ubjloqk8g8_to" transform="translate(-346.401177,-1.969482)"><g id="e15ubjloqk8g8_tr" transform="rotate(-18.684100)"><path id="e15ubjloqk8g8" style="mix-blend-mode:multiply" d="M1376.500000,1217.910000C1383.235076,1186.281362,1387.580677,1154.190771,1389.500000,1121.910000L1390.100000,1109.780000C1390.280000,1105.780000,1390.600000,1101.780000,1390.510000,1097.670000L1390.510000,1073.420000C1389.820000,1057.260000,1389.270000,1041.100000,1387.290000,1025.030000L1386.060000,1012.950000C1385.530000,1008.950000,1384.860000,1004.950000,1384.250000,1000.950000L1382.380000,988.950000L1381.440000,982.950000C1381.080000,980.950000,1380.630000,978.950000,1380.220000,977.010000L1375.220000,953.280000L1368.890000,929.860000C1359.720090,898.841814,1347.975950,868.643553,1333.780000,839.580000C1319.330743,810.637011,1302.559157,782.912893,1283.630000,756.680000L1276.460000,746.920000C1274.050000,743.670000,1271.700000,740.380000,1269.090000,737.290000L1253.800000,718.490000L1237.620000,700.420000C1236.250000,698.920000,1234.940000,697.420000,1233.550000,695.910000L1229.290000,691.600000L1220.790000,682.970000C1197.907414,660.117615,1173.370888,638.983648,1147.380000,619.740000C1121.281555,600.687386,1093.881233,583.485330,1065.380000,568.260000C1058.180000,564.590000,1051.080000,560.680000,1043.790000,557.260000L1021.790000,547.010000C1006.910000,540.720000,992.030000,534.390000,976.790000,529.110000C946.330805,518.175284,915.123346,509.449360,883.410000,503C851.698981,496.715381,819.569236,492.768098,787.280000,491.190000C779.210000,490.960000,771.130000,490.410000,763.040000,490.470000L738.810000,490.710000L714.620000,492.100000C712.620000,492.230000,710.620000,492.310000,708.560000,492.480000L702.560000,493.130000L690.560000,494.420000C662.464364,497.692572,634.639639,502.976128,607.300000,510.230000C603.400000,511.230000,599.520000,512.320000,595.630000,513.450000C533.630000,531.800000,473.870000,556.940000,415.490000,584.570000C357.110000,612.200000,299.610000,641.950000,239.880000,666.630000C210.020000,678.900000,179.480000,689.750000,148.140000,697.490000C116.800000,705.230000,84.570000,709.780000,52.280000,709.490000C19.949057,709.237127,-12.164900,704.181934,-43.010000,694.490000C-73.850000,684.890000,-103.200000,670.960000,-131.010000,654.490000C-137.850000,650.220000,-144.820000,646.120000,-151.540000,641.680000L-171.410000,627.830000C-184.580000,618.490000,-197.270000,608.490000,-209.920000,598.450000C-235.160000,578.300000,-259.710000,557.290000,-284.160000,536.170000C-333.080000,493.980000,-381.610000,451.170000,-433.930000,413.090000C-460.130000,394.150000,-487.300000,376.460000,-515.930000,361.410000C-544.560000,346.360000,-574.730000,334.020000,-606.270000,326.520000C-637.808273,318.818862,-670.453059,316.710235,-702.720000,320.290000C-734.930000,323.940000,-766.300000,333.580000,-795.560000,347.390000C-810.163772,354.371518,-824.335861,362.222268,-838,370.900000C-851.700000,379.540000,-864.760000,389.140000,-877.530000,399.060000C-883.820000,404.150000,-890.180000,409.160000,-896.230000,414.520000C-899.230000,417.200000,-902.420000,419.720000,-905.350000,422.520000L-914.240000,430.810000C-925.751870,442.212434,-936.445075,454.412712,-946.240000,467.320000C-985.180000,519.160000,-1009.240000,581.620000,-1017.100000,645.870000C-1021.057201,678.075320,-1020.592902,710.670460,-1015.720000,742.750000C-1013.148374,758.746622,-1009.428765,774.537415,-1004.590000,790C-999.627883,805.445257,-993.410478,820.458667,-986,834.890000C-978.580395,849.321963,-969.857457,863.045696,-959.940000,875.890000C-957.420000,879.060000,-955.120000,882.400000,-952.420000,885.430000L-944.510000,894.660000C-938.950000,900.560000,-933.510000,906.590000,-927.510000,912.070000C-915.817893,923.286638,-903.277300,933.583900,-890,942.870000C-876.754026,952.215013,-862.914877,960.689529,-848.570000,968.240000Q-827.060000,979.500000,-804.510000,988.640000C-789.510000,994.640000,-774.210000,1000.040000,-758.800000,1004.950000C-743.390000,1009.860000,-727.740000,1014.070000,-712.060000,1018.040000C-696.380000,1022.010000,-680.610000,1025.520000,-664.770000,1028.860000C-601.470000,1042.130000,-537.410000,1051.240000,-474.280000,1064.720000C-347.870690,1091.943131,-225.285471,1134.596071,-109.280000,1191.720000C-80.330000,1206,-51.680000,1221,-23.690000,1237L-13.140000,1243L-2.740000,1249.180000L18.080000,1261.530000C31.780000,1270.090000,45.630000,1278.410000,59.160000,1287.220000C113.590000,1321.980000,166.540000,1359.050000,219.560000,1395.960000C272.580000,1432.870000,325.670000,1469.830000,380.450000,1504.200000Q421.390000,1530.200000,463.850000,1553.710000L485.140000,1565.310000C492.300000,1569.090000,499.550000,1572.660000,506.750000,1576.310000L517.560000,1581.790000C521.180000,1583.600000,524.870000,1585.250000,528.560000,1586.980000L550.560000,1597.290000C609.660000,1623.490000,670.950000,1645.390000,734.430000,1658.230000C750.190000,1661.880000,766.260000,1663.990000,782.210000,1666.610000C790.210000,1667.610000,798.310000,1668.350000,806.350000,1669.240000L818.410000,1670.510000L830.540000,1671.120000C862.840000,1673.460000,895.310000,1671.890000,927.450000,1668.490000L951.450000,1665.180000C955.450000,1664.770000,959.450000,1663.670000,963.380000,1662.930000L975.260000,1660.470000L987.140000,1658C991.090000,1657.100000,994.940000,1655.870000,998.870000,1654.820000L1010.550000,1651.560000L1016.390000,1649.900000L1022.120000,1647.900000C1052.950000,1637.970000,1082.410000,1624.030000,1110.220000,1607.540000C1138.048060,1590.979641,1164.245044,1571.820752,1188.460000,1550.320000C1212.442324,1528.579238,1234.581442,1504.888141,1254.650000,1479.490000L1262.080000,1469.900000C1264.550000,1466.700000,1267.080000,1463.550000,1269.340000,1460.190000L1283.230000,1440.290000L1296.230000,1419.790000L1299.480000,1414.650000L1302.480000,1409.370000L1308.480000,1398.810000L1314.420000,1388.240000L1319.890000,1377.420000C1323.460000,1370.160000,1327.370000,1363.070000,1330.520000,1355.630000C1333.670000,1348.190000,1337.220000,1340.910000,1340.390000,1333.460000L1349.300000,1310.900000C1360.525960,1280.576180,1369.614853,1249.503527,1376.500000,1217.910000Z" transform="translate(0,0)" opacity="0.1" fill="rgb(33,33,94)" stroke="none" stroke-width="1"/></g></g><g id="e15ubjloqk8g9_to" transform="translate(-61.030497,-172.631570)"><path id="e15ubjloqk8g9" d="M926.390000,-131.700000C935.361777,-162.777586,941.977201,-194.487494,946.180000,-226.560000L947.630000,-238.620000C948.110000,-242.620000,948.710000,-246.620000,948.910000,-250.620000L950.650000,-274.820000C951.110000,-290.980000,951.710000,-307.140000,950.880000,-323.310000L950.520000,-335.440000C950.270000,-339.440000,949.890000,-343.440000,949.570000,-347.520000L948.570000,-359.600000L948.070000,-365.650000C947.850000,-367.650000,947.540000,-369.650000,947.270000,-371.650000L943.950000,-395.650000L939.300000,-419.460000C932.360586,-451.050298,922.800843,-482.007406,910.720000,-512.010000C898.362781,-541.908909,883.608030,-570.759598,866.600000,-598.280000L860.140000,-608.530000C857.970000,-611.930000,855.860000,-615.390000,853.480000,-618.660000L839.560000,-638.500000L824.700000,-657.750000C823.440000,-659.350000,822.240000,-660.960000,820.950000,-662.540000L817.020000,-667.140000L809.150000,-676.350000C787.956907,-700.778239,764.987703,-723.607061,740.430000,-744.650000C715.741381,-765.522167,689.620764,-784.638970,662.260000,-801.860000C655.340000,-806.020000,648.540000,-810.440000,641.520000,-814.420000L620.320000,-826.210000C605.930000,-833.540000,591.530000,-840.920000,576.690000,-847.270000C547.121647,-860.354357,516.649521,-871.292641,485.510000,-880C454.341933,-888.526542,422.589921,-894.753279,390.510000,-898.630000C382.510000,-899.430000,374.450000,-900.560000,366.380000,-901.070000L342.190000,-902.560000L317.970000,-902.900000C315.970000,-902.900000,313.920000,-902.980000,311.900000,-902.900000L305.850000,-902.690000L293.740000,-902.250000C265.484376,-900.990195,237.355521,-897.705098,209.570000,-892.420000C205.570000,-891.670000,201.650000,-890.890000,197.700000,-890.040000C134.500000,-876.180000,73.110000,-855.360000,12.900000,-831.950000C-47.370000,-808.710000,-106.770000,-782.950000,-168.100000,-762.620000C-198.750000,-752.510000,-229.990000,-743.860000,-261.800000,-738.380000C-293.610000,-732.900000,-326.080000,-730.640000,-358.280000,-733.230000C-390.518487,-735.778794,-422.198509,-743.109012,-452.280000,-754.980000C-482.360000,-766.750000,-510.650000,-782.730000,-537.160000,-801.130000C-543.680000,-805.880000,-550.330000,-810.470000,-556.720000,-815.370000L-575.550000,-830.610000C-588.030000,-840.860000,-599.970000,-851.740000,-611.880000,-862.610000C-635.620000,-884.510000,-658.610000,-907.220000,-681.490000,-930.030000C-727.270000,-975.590000,-772.630000,-1021.800000,-822.110000,-1063.470000C-846.890000,-1084.230000,-872.730000,-1103.810000,-900.230000,-1120.860000C-927.730000,-1137.910000,-956.920000,-1152.370000,-987.850000,-1162.100000C-1018.758735,-1172.030438,-1051.170083,-1176.460937,-1083.610000,-1175.190000C-1115.990000,-1173.840000,-1147.980000,-1166.460000,-1178.150000,-1154.780000C-1193.209196,-1148.841844,-1207.901814,-1142.013116,-1222.150000,-1134.330000C-1236.420000,-1126.690000,-1250.150000,-1118.040000,-1263.580000,-1109.050000C-1270.220000,-1104.430000,-1276.910000,-1099.880000,-1283.330000,-1094.960000C-1286.560000,-1092.510000,-1289.880000,-1090.220000,-1293.010000,-1087.630000L-1302.460000,-1080.010000C-1314.748120,-1069.448267,-1326.282901,-1058.040462,-1336.980000,-1045.870000C-1379.510000,-996.930000,-1407.980000,-936.340000,-1420.380000,-872.820000C-1426.629832,-840.980221,-1428.490447,-808.434601,-1425.910000,-776.090000C-1424.486593,-759.945270,-1421.903255,-743.923895,-1418.180000,-728.150000C-1414.322555,-712.394338,-1409.185499,-696.979825,-1402.820000,-682.060000C-1396.453202,-667.136542,-1388.734363,-652.826898,-1379.760000,-639.310000C-1377.470000,-635.970000,-1375.400000,-632.470000,-1372.930000,-629.250000L-1365.700000,-619.490000C-1360.570000,-613.210000,-1355.580000,-606.800000,-1350.010000,-600.920000C-1339.135560,-588.890976,-1327.347075,-577.721002,-1314.750000,-567.510000C-1302.202009,-557.247870,-1289.000904,-547.811351,-1275.230000,-539.260000Q-1254.580000,-526.500000,-1232.740000,-515.770000C-1218.160000,-508.700000,-1203.320000,-502.240000,-1188.300000,-496.240000C-1173.280000,-490.240000,-1157.970000,-484.930000,-1142.620000,-479.850000C-1127.270000,-474.770000,-1111.770000,-470.160000,-1096.210000,-465.700000C-1034.020000,-447.950000,-970.780000,-434.300000,-908.760000,-416.340000C-784.616275,-380.179880,-665.388724,-328.895241,-553.760000,-263.640000C-525.900000,-247.340000,-498.400000,-230.400000,-471.620000,-212.370000L-461.520000,-205.680000L-451.580000,-198.780000L-431.700000,-184.980000C-418.640000,-175.460000,-405.420000,-166.180000,-392.560000,-156.420000C-340.740000,-117.870000,-290.560000,-77.120000,-240.310000,-36.520000C-190.060000,4.080000,-139.720000,44.680000,-87.520000,82.860000Q-48.520000,111.710000,-7.860000,138.190000L12.540000,151.280000C19.420000,155.560000,26.400000,159.640000,33.310000,163.830000L43.700000,170.070000C47.190000,172.130000,50.700000,174.070000,54.270000,176.070000L75.440000,187.920000C132.520000,218.270000,192.100000,244.480000,254.500000,261.820000C269.960000,266.580000,285.840000,269.820000,301.560000,273.570000C309.490000,275.190000,317.500000,276.460000,325.450000,277.920000L337.390000,280L349.440000,281.480000C381.490000,286.110000,413.990000,286.860000,446.300000,285.760000L470.520000,284.180000C474.570000,284.050000,478.520000,283.240000,482.570000,282.780000L494.570000,281.170000L506.570000,279.560000C510.570000,278.940000,514.500000,277.980000,518.490000,277.220000L530.380000,274.800000L536.320000,273.560000L542.180000,271.970000C573.640000,264.270000,604.020000,252.460000,632.940000,237.970000C661.874881,223.434758,689.367701,206.191058,715.050000,186.470000C740.527495,166.502412,764.299492,144.449679,786.120000,120.540000L794.220000,111.540000C796.900000,108.540000,799.660000,105.540000,802.150000,102.370000L817.420000,83.510000L831.860000,64L835.470000,59.100000L838.810000,54.100000L845.530000,43.990000L852.210000,33.870000L858.440000,23.460000C862.510000,16.460000,866.930000,9.690000,870.590000,2.460000C874.250000,-4.770000,878.320000,-11.800000,882,-19L892.490000,-40.860000C905.904062,-70.308472,917.231967,-100.663248,926.390000,-131.700000Z" transform="translate(0,0)" fill="rgb(2,89,210)" stroke="none" stroke-width="1"/></g></g><g id="e15ubjloqk8g10"><g id="e15ubjloqk8g11" opacity="0.42"><g id="e15ubjloqk8g12_to" transform="translate(-353.453259,-372.210773)"><g id="e15ubjloqk8g12_tr" transform="rotate(110.185459)"><path id="e15ubjloqk8g12" d="M178.564373,236.595275C181.605416,258.036987,187.296189,279.100257,193.993191,299.854798C200.690192,320.609340,208.225715,341.164701,213.759965,362.208053C216.600912,372.713987,218.566543,383.392538,219.640804,394.156503C220.708652,404.933840,220.250390,415.788026,218.276807,426.463476C216.212820,437.144030,212.377008,447.491756,206.895259,457.167052C201.384668,466.797209,194.630772,475.821385,186.770715,484.056333C184.769441,486.048131,182.824069,488.169397,180.766893,490.151237L174.472383,495.977247C170.212688,499.821419,165.740567,503.476369,161.257266,507.111402C152.257122,514.351590,142.977471,521.312926,133.686640,528.244385C115.093798,542.117262,96.299709,555.800918,79.070864,570.998342C70.407747,578.552605,62.363420,586.650081,54.999673,595.228572C47.610513,603.785401,41.454371,613.133384,36.675158,623.053998C31.937810,632.995261,29.194352,643.599537,28.569438,654.384990C28.063352,665.173555,29.547683,675.963000,32.963297,686.323481C34.667545,691.495670,36.713378,696.573645,39.090103,701.530863C41.449147,706.510359,44.210681,711.300635,47.095199,716.041116C48.604540,718.381479,50.069160,720.741760,51.679123,723.012411C52.484105,724.147736,53.233185,725.332856,54.082888,726.438304L56.598456,729.804444C60.111327,734.190721,63.962946,738.353697,68.125348,742.263144C85.076296,757.812525,106.298119,769.142326,129.684092,775.127821C141.310949,778.155140,153.348402,779.750114,165.461059,779.868302C171.505837,779.885231,177.544065,779.512455,183.528428,778.752895C189.505335,777.952466,195.398475,776.716728,201.148584,775.058108C206.899860,773.404575,212.468643,771.284377,217.784874,768.724189C219.104149,768.066895,220.468146,767.489274,221.753881,766.732390L225.622266,764.631043C228.126653,763.127235,230.664582,761.643345,233.045986,760.000111C237.876189,756.765923,242.417804,753.203219,246.630053,749.343988C250.866511,745.497394,254.821295,741.412441,258.469994,737.114345Q263.925981,730.660917,268.644069,723.749376Q273.362156,716.837835,277.331163,709.647442C280.047977,704.827290,282.585906,699.927465,285.000851,694.987805C287.415796,690.048144,289.651857,685.028812,291.843196,680.049315C300.586192,659.912231,307.831028,639.277198,316.663467,619.130155C334.422114,578.829571,357.680479,540.628637,385.914259,505.388496C392.980210,496.604664,400.280947,487.960258,407.950635,479.584745L410.812792,476.427744L413.730851,473.320538L419.600510,467.126045C423.603058,463.072735,427.538524,458.949711,431.641695,454.966114C447.864314,438.892300,464.824832,423.445901,481.740629,407.969626C498.656427,392.493351,515.572224,377.017076,531.638318,360.843671Q543.746586,348.773372,555.038691,336.075656L560.628842,329.691941C562.473592,327.540799,564.228899,325.349820,566.028928,323.178760L568.723381,319.922169C569.606625,318.826680,570.445147,317.701314,571.306031,316.595866L576.460150,309.923340C589.753529,291.907522,601.582289,272.925681,610.202302,252.748761C612.516625,247.769265,614.260752,242.590589,616.206125,237.491584C617.078188,234.912205,617.827268,232.292990,618.654611,229.703652L619.850903,225.799726L620.812409,221.816129C623.532348,211.292397,625.197304,200.574224,625.787644,189.788008L626.033610,181.711264C626.123053,180.356841,625.966528,179.012377,625.932988,177.667913L625.742922,173.684316L625.552857,169.640965C625.463415,168.296501,625.250989,166.961996,625.094465,165.657368L624.602532,161.673770L624.356565,159.681972L623.965254,157.690173C622.105617,147.026360,618.914346,136.580987,614.450817,126.548402C610.049099,116.447222,604.575780,106.743054,598.105215,97.567732C591.546297,88.496014,584.153079,79.925073,576.001758,71.943243L572.904814,68.955546C571.876226,67.959646,570.869999,66.963747,569.763149,66.037561L563.267393,60.390812L556.480950,55.012955L554.781544,53.668491L553.015056,52.393740L549.482081,49.854197L545.937925,47.374408L542.270786,44.984249C539.811119,43.410729,537.429715,41.737618,534.869426,40.293564C532.309137,38.849510,529.838290,37.305866,527.289181,35.841894L519.462969,31.679035C508.946243,26.325995,498.022590,21.633849,486.771765,17.636855C475.504122,13.696309,463.918119,10.520296,452.112828,8.135975L447.640708,7.279502C446.153727,6.990691,444.689108,6.672003,443.168587,6.482782L434.224345,5.158236C428.209342,4.510902,422.194340,3.813772,416.145796,3.584716L411.606593,3.325782C410.097253,3.325782,408.576732,3.325782,407.067391,3.275987L402.528188,3.275987L400.292128,3.275987C399.531867,3.275987,398.771606,3.335741,398.056067,3.365618L388.977662,3.724141L379.932797,4.530820C367.909795,5.836466,356.029112,8.028322,344.412977,11.083837C332.827276,14.269418,321.550438,18.286079,310.693185,23.094383L306.645916,24.926838C305.293099,25.534336,303.940283,26.131876,302.632187,26.829005L294.750074,30.812602L287.069207,35.154723C286.443110,35.523206,285.794652,35.871771,285.168555,36.250213L283.256724,37.415415L279.567224,39.785655C269.689518,46.074327,260.347148,53.004748,251.616468,60.520279C242.971217,68.090280,234.931558,76.190146,227.556458,84.760467C225.756429,86.931528,223.878138,89.052793,222.145192,91.263690L217.013433,97.956133C213.771145,102.517352,210.517677,107.068612,207.633159,111.819051C201.723312,121.251273,196.582039,131.049599,192.249063,141.138327C187.991200,151.253144,184.568376,161.631465,182.007906,172.190467C181.426531,174.839559,180.733352,177.468733,180.252599,180.157661L178.866242,188.124856L177.893555,196.171722C177.815293,196.848934,177.725851,197.516186,177.669949,198.163521L177.535786,200.155319L177.278639,204.208630C176.703113,215.017285,177.133160,225.849831,178.564373,236.595275M178.564373,236.595275C177.139665,225.862706,176.713362,215.043599,177.289819,204.248465L177.546966,200.205114L177.669949,198.213316C177.669949,197.546063,177.826473,196.868852,177.893555,196.221517L178.866242,188.164692L180.241419,180.197497C180.710991,177.528487,181.415350,174.899313,181.985546,172.230303C184.531635,161.663712,187.947122,151.278321,192.204342,141.158245C196.525735,131.060432,201.655786,121.252146,207.554897,111.809092C210.439415,107.058653,213.692883,102.497434,216.923990,97.926256L222.055749,91.193977C223.788696,88.973122,225.666987,86.851856,227.455835,84.680796C234.833729,76.100023,242.873159,67.987078,251.515846,60.400771C260.224548,52.871846,269.544350,45.924890,279.399519,39.616352L283.111380,37.275989L284.967310,36.110787C285.604587,35.732345,286.241864,35.383780,286.879142,35.015297L294.560009,30.653259L302.453303,26.669661C303.761398,25.972532,305.114215,25.374992,306.467031,24.767494L310.525481,22.925080C321.388531,18.102116,332.672927,14.072104,344.267633,10.874698C355.898076,7.773764,367.797547,5.538588,379.843355,4.192214L388.888219,3.375577L397.988985,3.007094C398.738066,3.007094,399.498326,2.937381,400.225046,2.917463L402.461106,2.917463L407.011489,2.917463C408.532010,2.917463,410.052531,2.917463,411.561872,2.977217L416.112255,3.226192C422.171979,3.445290,428.198162,4.142419,434.224345,4.789754L443.168587,6.104341C444.666747,6.293562,446.142547,6.612249,447.640708,6.891101L452.112828,7.747575C463.954935,10.126462,475.578280,13.299136,486.883568,17.238495C498.165662,21.234451,509.119395,25.930008,519.664215,31.290634L527.490426,35.453493C530.050715,36.897547,532.566283,38.441191,535.104212,39.905163C537.642141,41.369135,540.057086,43.022328,542.516752,44.595849L546.195072,46.986007L549.750408,49.525550L553.294564,52.065093L555.072232,53.339845L556.838720,54.684309L563.647524,60.062165L570.165640,65.728832C571.283670,66.655018,572.289897,67.660876,573.318485,68.646817L576.415429,71.634515C584.605367,79.625252,592.028986,88.213409,598.608329,97.308799C605.103316,106.449362,610.606497,116.120028,615.043373,126.189878C619.534103,136.256542,622.747885,146.738693,624.624892,157.441198L625.016203,159.432997L625.273350,161.424796L625.776463,165.408393C625.921807,166.752857,626.145413,168.097321,626.234856,169.451744L626.424921,173.505054L626.614986,177.558364C626.614986,178.902828,626.816231,180.257251,626.726789,181.611674L626.469642,189.788008C625.891486,200.599112,624.241560,211.343528,621.539129,221.895801L620.577623,225.879398L619.370150,229.793283C618.553988,232.402539,617.804908,235.021754,616.921664,237.611092C614.987472,242.730014,613.232164,247.918650,610.917842,252.918064C602.297829,273.154738,590.457889,292.196333,577.164509,310.261946L572.010390,316.944430C571.138326,318.049879,570.310984,319.185204,569.416560,320.280693L566.733287,323.547243C564.922078,325.718303,563.166771,327.919241,561.322021,330.070383L555.731870,336.474016Q544.428584,349.131896,532.331497,361.281867C516.265403,377.485149,499.349605,392.981342,482.456169,408.477535C465.562732,423.973728,448.613394,439.420126,432.424316,455.493941C428.332326,459.477538,424.419220,463.590602,420.416672,467.643912L414.569374,473.838406L411.651315,476.945612L408.800338,480.092654C401.153011,488.458208,393.874634,497.092655,386.831044,505.866527C358.615243,541.040212,335.360953,579.170380,317.591432,619.399048C308.747813,639.496296,301.480616,660.131329,292.715259,680.288331C290.479199,685.327581,288.243138,690.336955,285.828193,695.306492C283.413248,700.276030,280.852959,705.165895,278.136145,710.005966C275.419332,714.846037,272.456552,719.566599,269.314887,724.197531C266.173222,728.828463,262.729689,733.300051,259.073730,737.622254C255.397132,741.929705,251.412397,746.021389,247.144347,749.871815C242.899772,753.756464,238.320510,757.339355,233.448477,760.587691C231.055892,762.260802,228.495603,763.734733,225.968855,765.248500L222.078110,767.349848C220.781195,768.076854,219.406018,768.664435,218.086742,769.341646C212.724256,771.910513,207.111077,774.040517,201.316288,775.705443C195.531432,777.353125,189.604650,778.575537,183.595509,779.360393C177.570213,780.121632,171.490691,780.491091,165.405158,780.465841C153.234071,780.340597,141.139789,778.728816,129.460486,775.675566C105.972921,769.645633,84.663108,758.250951,67.644595,742.621668C63.464622,738.689788,59.601538,734.499912,56.084162,730.083296L53.557414,726.707197C52.696531,725.591790,51.947450,724.406670,51.142469,723.261386C49.532505,720.980776,48.067886,718.610536,46.558545,716.290091C43.662846,711.539651,40.901312,706.709539,38.542268,701.730043C36.155038,696.751633,34.105359,691.650098,32.404282,686.452948C28.982334,676.042487,27.498061,665.202995,28.010423,654.365072C28.648542,643.525771,31.418603,632.870493,36.194405,622.884695C41.002511,612.941815,47.188559,603.573972,54.608362,594.999515C61.991437,586.414123,70.054369,578.310068,78.735455,570.749367C95.997841,555.551944,114.825470,541.868287,133.418313,528.025287C142.731505,521.103787,151.999975,514.142451,161.000119,506.912222C165.472239,503.287148,169.944360,499.642157,174.226416,495.797986L180.565648,490.001852C182.622823,488.010053,184.557015,485.948541,186.558290,483.916907C194.415536,475.701675,201.169417,466.697575,206.682834,457.087380C212.160059,447.434077,215.999420,437.110435,218.075562,426.453517C220.054814,415.792221,220.524328,404.951821,219.473099,394.186380C218.400980,383.429406,216.439099,372.757579,213.603441,362.257848C208.102732,341.214496,200.522487,320.659135,193.903748,299.884675C187.285009,279.110216,181.605416,258.056905,178.542013,236.615193" transform="scale(1,-1.137076) translate(0,0)" fill="url(#e15ubjloqk8g12-fill)" stroke="none" stroke-width="1"/></g></g></g></g><g id="e15ubjloqk8g13_to" style="offset-path:path('M1223.860545,300.745773C1440.187215,333.286105,1491.350983,475.599355,1425.298491,477.789009');offset-rotate:0deg"><g id="e15ubjloqk8g13" transform="translate(-1465.133032,-210.632001)"><path id="e15ubjloqk8g14" d="M1109.510000,351.060000C1102.340000,387.060000,1099.190000,423.770000,1097.650000,460.420000C1096.110000,497.070000,1095.870000,533.830000,1092.490000,570.420000C1090.916445,588.716960,1087.995184,606.872901,1083.750000,624.740000C1079.484303,642.624706,1072.990192,659.903141,1064.420000,676.170000C1055.727703,692.375959,1044.680963,707.203798,1031.640000,720.170000C1018.528994,733.056550,1003.956809,744.366606,988.220000,753.870000C984.220000,756.180000,980.350000,758.610000,976.330000,760.870000L964.100000,767.200000C955.910000,771.360000,947.530000,775.100000,939.100000,778.810000C922.280000,786.170000,905.220000,792.960000,888.100000,799.680000C853.950000,813.120000,819.600000,826.180000,786.680000,842.430000C770.186388,850.457626,754.286082,859.650931,739.100000,869.940000C724.100000,880.280000,710,892.150000,697.900000,906C685.751575,919.755439,676.108929,935.534314,669.410000,952.620000C662.878095,969.768023,659.205921,987.872142,658.540000,1006.210000C658.196532,1015.364158,658.403571,1024.530685,659.160000,1033.660000C659.880000,1042.790000,661.260000,1051.860000,662.860000,1060.880000C663.760000,1065.370000,664.590000,1069.880000,665.680000,1074.330000C666.220000,1076.560000,666.680000,1078.810000,667.280000,1081.010000L669.100000,1087.630000C671.771730,1096.388111,675.059945,1104.946157,678.940000,1113.240000C694.640000,1146.350000,719.560000,1174.870000,749.650000,1195.670000C764.709587,1206.118323,781.128702,1214.455734,798.450000,1220.450000C807.125985,1223.366379,815.998357,1225.662168,825,1227.320000C834.015050,1228.880140,843.141395,1229.709503,852.290000,1229.800000C861.436032,1229.889600,870.570994,1229.139790,879.580000,1227.560000C881.830000,1227.130000,884.100000,1226.850000,886.320000,1226.310000L893.010000,1224.780000C897.410000,1223.550000,901.850000,1222.420000,906.150000,1220.870000C914.831148,1217.974880,923.273390,1214.407406,931.400000,1210.200000C939.552236,1206.049917,947.425562,1201.373355,954.970000,1196.200000Q966.260000,1188.420000,976.780000,1179.520000C983.780000,1173.580000,990.460000,1167.350000,996.980000,1160.910000C1003.500000,1154.470000,1009.740000,1147.760000,1015.860000,1140.910000C1021.980000,1134.060000,1027.910000,1127.090000,1033.760000,1120.030000C1057.140000,1091.760000,1078.630000,1061.970000,1102.160000,1033.740000C1149.332392,977.289579,1203.270913,926.857397,1262.760000,883.580000C1277.630000,872.800000,1292.760000,862.360000,1308.280000,852.580000L1314.080000,848.860000L1319.950000,845.250000L1331.700000,838C1339.640000,833.390000,1347.500000,828.630000,1355.530000,824.180000C1387.470000,806.040000,1420.140000,789.270000,1452.750000,772.430000C1485.360000,755.590000,1517.970000,738.740000,1549.750000,720.370000Q1573.630000,706.700000,1596.670000,691.660000L1608.130000,684.040000C1611.920000,681.470000,1615.620000,678.770000,1619.380000,676.140000L1624.990000,672.140000C1626.860000,670.800000,1628.660000,669.390000,1630.500000,668.020000L1641.500000,659.740000C1670.270000,637.060000,1697.500000,612.130000,1720.690000,583.740000C1726.690000,576.810000,1731.990000,569.320000,1737.520000,562.020000C1740.170000,558.280000,1742.650000,554.430000,1745.230000,550.640000L1749.050000,544.930000L1752.560000,539.020000C1762.270000,523.470000,1770.070000,506.800000,1776.870000,489.820000L1781.570000,476.900000C1782.430000,474.780000,1782.920000,472.530000,1783.570000,470.340000L1785.470000,463.740000L1787.380000,457.140000C1787.970000,454.930000,1788.380000,452.670000,1788.880000,450.440000L1790.340000,443.730000L1791.060000,440.370000L1791.560000,436.970000C1794.630583,418.892569,1795.670375,400.528499,1794.660000,382.220000C1793.713466,363.911333,1791.034837,345.733483,1786.660000,327.930000C1782.111237,310.163533,1776.090420,292.806855,1768.660000,276.040000L1765.820000,269.780000C1764.820000,267.690000,1763.960000,265.590000,1762.820000,263.570000L1756.530000,251.340000L1749.680000,239.420000L1747.960000,236.420000L1746.110000,233.530000L1742.400000,227.740000L1738.670000,221.970000L1734.670000,216.360000C1731.980000,212.640000,1729.460000,208.810000,1726.560000,205.250000C1723.660000,201.690000,1720.950000,198,1718.070000,194.440000L1709.070000,184C1696.853525,170.323149,1683.691110,157.521623,1669.680000,145.690000C1655.600343,133.935095,1640.654673,123.258184,1624.970000,113.750000L1619.050000,110.240000C1617.050000,109.080000,1615.140000,107.860000,1613.050000,106.830000L1600.900000,100.400000C1592.610000,96.480000,1584.360000,92.470000,1575.790000,89.200000L1569.410000,86.620000C1567.270000,85.830000,1565.080000,85.120000,1562.920000,84.360000L1556.420000,82.120000L1553.380000,81C1552.280000,80.660000,1551.180000,80.370000,1550.080000,80L1536.850000,76.230000L1523.430000,73.230000C1505.445319,69.636741,1487.191793,67.552822,1468.860000,67C1450.517756,66.574751,1432.171184,67.634879,1414,70.170000L1407.190000,71.170000C1404.930000,71.510000,1402.650000,71.820000,1400.410000,72.310000L1386.920000,75L1373.570000,78.330000C1372.460000,78.620000,1371.340000,78.870000,1370.240000,79.180000L1366.950000,80.180000L1360.360000,82.180000C1342.829444,87.605713,1325.723024,94.317259,1309.180000,102.260000C1292.694291,110.319806,1276.792194,119.522238,1261.590000,129.800000C1257.840000,132.440000,1254,134.960000,1250.330000,137.700000L1239.330000,146.010000C1232.230000,151.810000,1225.110000,157.610000,1218.400000,163.870000C1204.845187,176.247526,1192.196037,189.581769,1180.550000,203.770000C1168.994251,218.027828,1158.496273,233.111360,1149.140000,248.900000C1146.890000,252.900000,1144.470000,256.810000,1142.360000,260.900000L1136.060000,273.130000L1130.330000,285.650000C1129.860000,286.650000,1129.330000,287.730000,1128.920000,288.780000L1127.650000,291.980000L1125.100000,298.380000C1118.455319,315.491459,1113.230999,333.121031,1109.480000,351.090000M1109.480000,351.090000C1113.215303,333.116123,1118.422864,315.479983,1125.050000,298.360000L1127.590000,291.960000L1128.860000,288.760000C1129.310000,287.700000,1129.800000,286.670000,1130.270000,285.620000L1135.990000,273.100000L1142.280000,260.850000C1144.390000,256.780000,1146.800000,252.850000,1149.050000,248.850000C1158.397968,233.044927,1168.889282,217.944654,1180.440000,203.670000C1192.075707,189.463420,1204.718336,176.112295,1218.270000,163.720000C1224.970000,157.450000,1232.080000,151.640000,1239.190000,145.830000L1250.190000,137.500000C1253.870000,134.750000,1257.710000,132.230000,1261.460000,129.590000C1276.665393,119.291091,1292.570660,110.065368,1309.060000,101.980000C1325.608605,94.017709,1342.721642,87.286136,1360.260000,81.840000L1366.860000,79.840000L1370.150000,78.840000C1371.260000,78.530000,1372.380000,78.280000,1373.490000,77.990000L1386.850000,74.650000L1400.350000,71.940000C1402.590000,71.440000,1404.870000,71.130000,1407.140000,70.790000L1413.950000,69.790000C1432.141988,67.223043,1450.512240,66.136145,1468.880000,66.540000C1487.246329,67.101329,1505.533472,69.198647,1523.550000,72.810000L1536.990000,75.810000L1550.240000,79.570000C1551.340000,79.890000,1552.460000,80.180000,1553.550000,80.570000L1556.810000,81.680000L1563.320000,83.920000C1565.490000,84.670000,1567.680000,85.380000,1569.830000,86.180000L1576.220000,88.760000C1584.810000,92.020000,1593.080000,96.030000,1601.380000,99.950000L1613.570000,106.380000C1615.570000,107.380000,1617.570000,108.630000,1619.570000,109.790000L1625.490000,113.300000C1641.214966,122.808347,1656.200762,133.488609,1670.320000,145.250000C1684.364762,157.100266,1697.563624,169.918199,1709.820000,183.610000L1718.820000,194.060000C1721.720000,197.620000,1724.500000,201.280000,1727.340000,204.880000C1730.180000,208.480000,1732.780000,212.280000,1735.480000,216L1739.480000,221.620000L1743.220000,227.400000L1746.950000,233.200000L1748.810000,236.100000L1750.530000,239.100000L1757.410000,251.040000L1763.720000,263.290000C1764.820000,265.290000,1765.720000,267.420000,1766.720000,269.510000L1769.580000,275.780000C1777.014230,292.583161,1783.035069,309.976697,1787.580000,327.780000C1791.965402,345.639005,1794.644105,363.874273,1795.580000,382.240000C1796.627805,400.611234,1795.621574,419.042026,1792.580000,437.190000L1792.070000,440.610000L1791.350000,443.980000L1789.900000,450.720000C1789.390000,452.960000,1788.980000,455.230000,1788.390000,457.450000L1786.490000,464.070000L1784.580000,470.700000C1783.900000,472.890000,1783.410000,475.150000,1782.580000,477.280000L1777.880000,490.280000C1771.070000,507.340000,1763.260000,524.060000,1753.530000,539.680000L1750.020000,545.610000L1746.190000,551.340000C1743.610000,555.140000,1741.130000,559.010000,1738.470000,562.760000C1732.930000,570.090000,1727.630000,577.600000,1721.610000,584.560000C1698.350000,613.050000,1671.120000,638.060000,1642.310000,660.810000L1631.310000,669.120000C1629.470000,670.490000,1627.670000,671.910000,1625.800000,673.250000L1620.180000,677.250000C1616.420000,679.890000,1612.710000,682.600000,1608.910000,685.180000L1597.450000,692.820000Q1574.380000,707.880000,1550.450000,721.610000C1518.670000,740.040000,1486.040000,756.910000,1453.450000,773.800000C1420.860000,790.690000,1388.210000,807.460000,1356.330000,825.610000C1348.330000,830.070000,1340.470000,834.820000,1332.550000,839.440000L1320.820000,846.630000L1314.970000,850.230000L1309.180000,853.950000C1293.690000,863.760000,1278.600000,874.200000,1263.760000,884.950000C1204.345002,928.110268,1150.457969,978.407071,1103.310000,1034.710000C1079.810000,1062.870000,1058.310000,1092.650000,1034.840000,1120.940000C1028.970000,1128.010000,1023.010000,1134.990000,1016.890000,1141.840000C1010.770000,1148.690000,1004.440000,1155.360000,997.890000,1161.840000C991.340000,1168.320000,984.590000,1174.540000,977.590000,1180.500000C970.590000,1186.460000,963.250000,1192.020000,955.670000,1197.240000C948.088957,1202.410326,940.182570,1207.086685,932,1211.240000C923.805059,1215.488514,915.288828,1219.086262,906.530000,1222C902.200000,1223.560000,897.730000,1224.700000,893.300000,1225.930000L886.560000,1227.460000C884.330000,1228.010000,882.040000,1228.290000,879.780000,1228.720000C870.700664,1230.301540,861.495531,1231.047992,852.280000,1230.950000C843.069843,1230.853635,833.882822,1230.007506,824.810000,1228.420000C815.752172,1226.752738,806.825854,1224.436774,798.100000,1221.490000C780.703491,1215.429099,764.217451,1207.017854,749.100000,1196.490000C718.880000,1175.560000,693.880000,1146.900000,678.100000,1113.610000C674.211320,1105.269454,670.916459,1096.664721,668.240000,1087.860000L666.420000,1081.200000C665.800000,1078.990000,665.360000,1076.730000,664.820000,1074.500000C663.730000,1070.040000,662.900000,1065.500000,662,1061.010000C660.400000,1052.010000,659,1042.870000,658.320000,1033.700000C657.575108,1024.533285,657.374756,1015.330448,657.720000,1006.140000C658.421755,987.716279,662.137650,969.532039,668.720000,952.310000C675.460747,935.147653,685.164990,919.303368,697.390000,905.500000C709.500000,891.640000,723.700000,879.750000,738.830000,869.350000C754.052763,859.055465,769.989795,849.858839,786.520000,841.830000C819.520000,825.600000,853.870000,812.570000,888.020000,799.160000C905.100000,792.460000,922.160000,785.690000,939.020000,778.340000C947.410000,774.640000,955.800000,770.910000,963.970000,766.760000L976.200000,760.460000C980.200000,758.250000,984.110000,755.830000,988.070000,753.520000C1003.789209,744.051551,1018.347966,732.778415,1031.450000,719.930000C1044.457835,706.980322,1055.477248,692.176566,1064.150000,676C1072.725009,659.764735,1079.225933,642.516287,1083.500000,624.660000C1087.759105,606.807518,1090.693755,588.664828,1092.280000,570.380000C1095.700000,533.830000,1095.870000,497.080000,1097.550000,460.380000C1099.230000,423.680000,1102.310000,387.040000,1109.550000,351.020000" transform="matrix(1 0 0 1 -1.41540200000001 -2.91746299999986)" opacity="0.42" fill="url(#e15ubjloqk8g14-fill)" stroke="none" stroke-width="1"/></g></g><g id="e15ubjloqk8g15_to" style="offset-path:path('M-82.615402,-63.839829C191.259364,504.686661,1711.729728,455.374061,1950.848995,-41.827057');offset-rotate:0deg"><g id="e15ubjloqk8g15" transform="translate(-275.202408,63.839830)"><circle id="e15ubjloqk8g16" r="24.410000" transform="matrix(1 0 0 1 309.44459799999987 -145.61746299999990)" fill="rgb(0,255,248)" stroke="none" stroke-width="1"/></g></g><g id="e15ubjloqk8g17_to" style="offset-path:path('M-218.084290,1199.547617C1276.016918,284.396075,1710.494228,791.480602,2096.432343,1302.676562');offset-rotate:0deg"><g id="e15ubjloqk8g17" transform="translate(169.155402,-1227.852537)"><path id="e15ubjloqk8g18" d="M-151.620000,1159.330000L-195.620000,1200.040000C-189.900000,1180.210000,-173,1164.590000,-151.620000,1159.330000Z" transform="matrix(1 0 0 1 -1.41540200000001 -2.91746299999986)" fill="rgb(0,255,248)" stroke="none" stroke-width="1"/><path id="e15ubjloqk8g19" d="M-118.430000,1159.630000L-195.260000,1230.770000C-196.525428,1226.707289,-197.297640,1222.507128,-197.560000,1218.260000L-131.920000,1157.500000C-127.361465,1157.738643,-122.840296,1158.452512,-118.430000,1159.630000Z" transform="matrix(1 0 0 1 -1.41540200000001 -2.91746299999986)" fill="rgb(0,255,248)" stroke="none" stroke-width="1"/><path id="e15ubjloqk8g20" d="M-96.430000,1170.310000L-183.720000,1251.130000C-186.112071,1248.424710,-188.241643,1245.498221,-190.080000,1242.390000L-105.880000,1164.390000C-102.559690,1166.077448,-99.397073,1168.058685,-96.430000,1170.310000Z" transform="matrix(1 0 0 1 -1.41540200000001 -2.91746299999986)" fill="rgb(0,255,248)" stroke="none" stroke-width="1"/><path id="e15ubjloqk8g21" d="M-81.200000,1187.260000L-165.420000,1265.260000C-168.740987,1263.581466,-171.903802,1261.606799,-174.870000,1259.360000L-87.570000,1178.540000C-85.176287,1181.239168,-83.043442,1184.158856,-81.200000,1187.260000Z" transform="matrix(1 0 0 1 -1.41540200000001 -2.91746299999986)" fill="rgb(0,255,248)" stroke="none" stroke-width="1"/><path id="e15ubjloqk8g22" d="M-119.730000,1270.370000L-75.650000,1229.560000C-81.330000,1249.450000,-98.240000,1265.110000,-119.730000,1270.370000Z" transform="matrix(1 0 0 1 -1.41540200000001 -2.91746299999986)" fill="rgb(0,255,248)" stroke="none" stroke-width="1"/><path id="e15ubjloqk8g23" d="M-73.700000,1211.360000L-139.390000,1272.170000C-143.948881,1271.928015,-148.470048,1271.210795,-152.880000,1270.030000L-76,1198.860000C-74.739552,1202.920519,-73.967442,1207.116768,-73.700000,1211.360000Z" transform="matrix(1 0 0 1 -1.41540200000001 -2.91746299999986)" fill="rgb(0,255,248)" stroke="none" stroke-width="1"/><path id="e15ubjloqk8g24" d="M-151.620000,1159.330000L-195.620000,1200.040000C-189.900000,1180.210000,-173,1164.590000,-151.620000,1159.330000Z" transform="matrix(1 0 0 1 -1.41540200000001 -2.91746299999986)" fill="rgb(0,255,248)" stroke="none" stroke-width="1"/><path id="e15ubjloqk8g25" d="M-118.430000,1159.630000L-195.260000,1230.770000C-196.525428,1226.707289,-197.297640,1222.507128,-197.560000,1218.260000L-131.920000,1157.500000C-127.361465,1157.738643,-122.840296,1158.452512,-118.430000,1159.630000Z" transform="matrix(1 0 0 1 -1.41540200000001 -2.91746299999986)" fill="rgb(0,255,248)" stroke="none" stroke-width="1"/><path id="e15ubjloqk8g26" d="M-96.430000,1170.310000L-183.720000,1251.130000C-186.112071,1248.424710,-188.241643,1245.498221,-190.080000,1242.390000L-105.880000,1164.390000C-102.559690,1166.077448,-99.397073,1168.058685,-96.430000,1170.310000Z" transform="matrix(1 0 0 1 -1.41540200000001 -2.91746299999986)" fill="rgb(0,255,248)" stroke="none" stroke-width="1"/><path id="e15ubjloqk8g27" d="M-81.200000,1187.260000L-165.420000,1265.260000C-168.740987,1263.581466,-171.903802,1261.606799,-174.870000,1259.360000L-87.570000,1178.540000C-85.176287,1181.239168,-83.043442,1184.158856,-81.200000,1187.260000Z" transform="matrix(1 0 0 1 -1.41540200000001 -2.91746299999986)" fill="rgb(0,255,248)" stroke="none" stroke-width="1"/><path id="e15ubjloqk8g28" d="M-73.700000,1211.360000L-139.390000,1272.170000C-143.948881,1271.928015,-148.470048,1271.210795,-152.880000,1270.030000L-76,1198.860000C-74.739552,1202.920519,-73.967442,1207.116768,-73.700000,1211.360000Z" transform="matrix(1 0 0 1 -1.41540200000001 -2.91746299999986)" fill="rgb(0,255,248)" stroke="none" stroke-width="1"/><path id="e15ubjloqk8g29" d="M-75.650000,1229.560000C-81.330000,1249.450000,-98.240000,1265.110000,-119.730000,1270.370000Z" transform="matrix(1 0 0 1 -1.41540200000001 -2.91746299999986)" fill="rgb(0,255,248)" stroke="none" stroke-width="1"/></g></g><g id="e15ubjloqk8g30_to" style="offset-path:path('M-144.670402,1156.412537C754.806703,740.709922,847.693612,287.208518,2160.202343,-158.866787');offset-rotate:0deg"><g id="e15ubjloqk8g30" transform="translate(-114.264598,-1174.785756)"><g id="e15ubjloqk8g31" clip-path="url(#e15ubjloqk8g45)"><g id="e15ubjloqk8g32"><path id="e15ubjloqk8g33" d="M120.840000,1268.380000L116.540000,1274.620000L103,1275C101.710000,1270.640000,100.430000,1266.200000,99.060000,1261.790000C97.440000,1256.570000,98.570000,1257.330000,93.240000,1257.660000C88.540000,1257.950000,83.840000,1258.330000,79.110000,1258.660000C77.570000,1253.430000,76,1248.420000,74.630000,1243.350000C74.090000,1241.350000,73.140000,1240.720000,71.100000,1240.920000C65.800000,1241.440000,60.470000,1241.760000,55.180000,1242.160000C53.640000,1236.960000,52.040000,1232.050000,50.780000,1227.060000C50.170000,1224.680000,49,1224.210000,46.780000,1224.430000C41.600000,1224.950000,36.400000,1225.250000,31.340000,1225.630000C29.740000,1220.560000,28.250000,1215.860000,26.760000,1211.160000L31.070000,1204.930000Q33.230000,1212.260000,35.390000,1219.630000L54,1218.320000C55.830000,1224.390000,57.570000,1230.190000,59.360000,1236.140000L78,1234.850000L83.380000,1252.660000L101.920000,1251.350000C103.770000,1257.450000,105.550000,1263.350000,107.310000,1269.100000Z" transform="matrix(1 0 0 1 -1.41540200000001 -2.91746299999986)" fill="rgb(0,23,158)" stroke="none" stroke-width="1"/><path id="e15ubjloqk8g34" d="M119,1077.570000L123.300000,1071.330000L128.050000,1085.660000L146.450000,1084.370000L151.850000,1102.200000L170.400000,1100.880000L175.760000,1118.700000L194.340000,1117.400000C196.150000,1123.400000,197.900000,1129.250000,199.700000,1135.220000L213.400000,1134.220000L209.090000,1140.460000L195.530000,1141.060000C193.740000,1135.140000,191.990000,1129.330000,190.190000,1123.360000L171.620000,1124.640000C169.770000,1118.530000,168.020000,1112.710000,166.250000,1106.830000L147.700000,1108.150000C145.870000,1102.080000,144.090000,1096.150000,142.300000,1090.320000L123.760000,1091.620000C123.290000,1090.060000,122.930000,1088.750000,122.490000,1087.460000C121.340000,1084.180000,120.160000,1080.880000,119,1077.570000Z" transform="matrix(1 0 0 1 -1.41540200000001 -2.91746299999986)" fill="rgb(0,23,158)" stroke="none" stroke-width="1"/><path id="e15ubjloqk8g35" d="M179.670000,1183.130000L175.360000,1189.360000L161.900000,1189.760000L156.550000,1172.090000L138,1173.420000C136.190000,1167.420000,134.440000,1161.600000,132.640000,1155.590000L114.030000,1156.890000C112.560000,1151.890000,111.030000,1147.220000,109.830000,1142.420000C109.140000,1139.540000,107.740000,1138.910000,105,1139.230000C100.110000,1139.810000,95.180000,1140.030000,90.210000,1140.410000C88.650000,1135.490000,87.140000,1130.700000,85.630000,1125.910000L89.930000,1119.670000L94.240000,1134.390000L112.840000,1133.090000L118.190000,1150.890000L136.780000,1149.620000L142.160000,1167.420000L160.700000,1166.120000C162.550000,1172.210000,164.330000,1178.120000,166.080000,1183.870000Z" transform="matrix(1 0 0 1 -1.41540200000001 -2.91746299999986)" fill="rgb(0,23,158)" stroke="none" stroke-width="1"/><path id="e15ubjloqk8g36" d="M154.560000,1219.510000L150.250000,1225.750000L136.700000,1226.330000C134.900000,1220.330000,133.120000,1214.480000,131.350000,1208.620000L112.800000,1209.930000L107.430000,1192.120000L88.860000,1193.410000C87.010000,1187.270000,85.260000,1181.410000,83.490000,1175.600000L64.940000,1176.900000C63.430000,1171.900000,61.940000,1167.110000,60.520000,1162.300000L64.470000,1156.580000C66.040000,1161.320000,67.610000,1166.070000,69.220000,1170.900000L87.630000,1169.610000L93,1187.430000L111.550000,1186.120000C113.380000,1192.190000,115.160000,1198.120000,116.930000,1203.950000L135.490000,1202.630000C137.310000,1208.630000,139.050000,1214.480000,140.840000,1220.450000Z" transform="matrix(1 0 0 1 -1.41540200000001 -2.91746299999986)" fill="rgb(0,23,158)" stroke="none" stroke-width="1"/><path id="e15ubjloqk8g37" d="M77,1138.390000L81.310000,1132.150000C82.560000,1136.150000,83.920000,1140.150000,85.030000,1144.150000C85.550000,1146.030000,86.410000,1146.620000,88.360000,1146.430000C93.670000,1145.920000,99,1145.610000,104.440000,1145.210000C105.880000,1150.060000,107.530000,1154.730000,108.600000,1159.520000C109.290000,1162.640000,110.820000,1163.190000,113.600000,1162.880000C118.470000,1162.340000,123.380000,1162.090000,128.350000,1161.710000C129.860000,1166.820000,131.410000,1171.710000,132.720000,1176.710000C133.310000,1178.940000,134.310000,1179.710000,136.650000,1179.480000C141.840000,1178.940000,147.060000,1178.650000,152.290000,1178.260000C153.740000,1183.160000,155.290000,1187.750000,156.410000,1192.430000C157.150000,1195.490000,158.540000,1196.430000,161.650000,1195.920000C164.760000,1195.410000,168.120000,1195.340000,171.370000,1195.080000L167.060000,1201.320000C163.720000,1201.510000,160.340000,1201.490000,157.060000,1201.950000C154.380000,1202.320000,153.060000,1201.590000,152.440000,1198.880000C151.440000,1194.700000,149.960000,1190.630000,148.880000,1186.450000C148.410000,1184.630000,147.610000,1184.180000,145.790000,1184.380000C141.300000,1184.860000,136.790000,1185.040000,132.270000,1185.500000C130.270000,1185.710000,129.270000,1185.080000,128.720000,1183.070000C127.570000,1178.690000,126.130000,1174.400000,124.970000,1170.070000C124.520000,1168.350000,123.870000,1167.680000,121.970000,1167.890000C117.480000,1168.390000,112.970000,1168.490000,108.460000,1169C106.200000,1169.260000,105.310000,1168.480000,104.750000,1166.380000C103.390000,1161.380000,101.810000,1156.380000,100.320000,1151.290000L81.740000,1152.580000C81.330000,1151.230000,81.010000,1150.120000,80.650000,1149.040000C79.450000,1145.460000,78.230000,1141.920000,77,1138.390000Z" transform="matrix(1 0 0 1 -1.41540200000001 -2.91746299999986)" fill="rgb(0,23,158)" stroke="none" stroke-width="1"/><path id="e15ubjloqk8g38" d="M102.490000,1101.480000L106.790000,1095.240000L111.010000,1110.050000L129.630000,1108.710000C131.470000,1114.710000,133.250000,1120.650000,135.030000,1126.550000L153.570000,1125.240000L158.970000,1143.070000L177.520000,1141.760000L182.870000,1159.540000L196.530000,1158.690000L192.220000,1164.930000L178.710000,1165.420000C176.910000,1159.490000,175.130000,1153.610000,173.360000,1147.740000L154.810000,1149.050000L149.440000,1131.240000L130.870000,1132.520000C129.030000,1126.410000,127.280000,1120.600000,125.500000,1114.710000L107,1116Z" transform="matrix(1 0 0 1 -1.41540200000001 -2.91746299999986)" fill="rgb(0,23,158)" stroke="none" stroke-width="1"/><path id="e15ubjloqk8g39" d="M68.770000,1150.340000L73.080000,1144.110000L77.450000,1158.750000C82.720000,1158.370000,87.860000,1158.160000,92.940000,1157.550000C95.520000,1157.240000,96.450000,1158.160000,97.060000,1160.470000C98.360000,1165.410000,99.910000,1170.290000,101.380000,1175.270000C106.520000,1174.900000,111.380000,1174.760000,116.130000,1174.130000C119.130000,1173.750000,120.470000,1174.440000,121.130000,1177.480000C122.030000,1181.570000,123.540000,1185.480000,124.590000,1189.590000C125.060000,1191.410000,125.880000,1191.870000,127.690000,1191.680000C132.290000,1191.200000,136.910000,1191,141.510000,1190.550000C143.300000,1190.370000,144.170000,1190.920000,144.640000,1192.680000C145.790000,1196.940000,147.300000,1201.110000,148.300000,1205.400000C148.890000,1207.940000,150.050000,1208.400000,152.460000,1208.140000C155.880000,1207.710000,159.350000,1207.730000,162.800000,1207.560000L158.490000,1213.800000C154.870000,1213.900000,151.240000,1213.800000,147.630000,1214.170000C145.700000,1214.340000,144.860000,1213.990000,144.360000,1211.980000C143.280000,1207.600000,141.770000,1203.320000,140.600000,1198.980000C140.070000,1196.980000,139.060000,1196.360000,137.030000,1196.580000C132.430000,1197.060000,127.820000,1197.430000,123.200000,1197.580000C122.123779,1197.453692,121.178148,1196.807074,120.670000,1195.850000C119.240664,1191.896169,118.041982,1187.862722,117.080000,1183.770000C116.400000,1180.770000,115.160000,1179.680000,111.960000,1180.110000C107.100000,1180.770000,102.170000,1180.900000,97.220000,1181.250000C95.770000,1176.360000,94.300000,1171.760000,93.080000,1167.090000C92.380000,1164.400000,91.370000,1163.090000,88.180000,1163.570000C83.240000,1164.290000,78.180000,1164.380000,73.390000,1164.720000Z" transform="matrix(1 0 0 1 -1.41540200000001 -2.91746299999986)" fill="rgb(0,23,158)" stroke="none" stroke-width="1"/><path id="e15ubjloqk8g40" d="M137.700000,1244L133.400000,1250.230000L119.890000,1250.700000Q117.200000,1241.830000,114.530000,1233.040000L96,1234.290000C94.180000,1228.290000,92.430000,1222.430000,90.630000,1216.470000L72.070000,1217.780000C70.230000,1211.660000,68.470000,1205.850000,66.690000,1199.950000L48.170000,1201.270000C46.650000,1196.340000,45.170000,1191.530000,43.670000,1186.730000L47.980000,1180.490000C49.380000,1185.400000,50.790000,1190.310000,52.210000,1195.270000L70.820000,1194C72.650000,1200,74.430000,1205.930000,76.210000,1211.830000L94.760000,1210.520000C96.600000,1216.610000,98.370000,1222.520000,100.150000,1228.350000L118.710000,1227.040000L124.050000,1244.820000Z" transform="matrix(1 0 0 1 -1.41540200000001 -2.91746299999986)" fill="rgb(0,23,158)" stroke="none" stroke-width="1"/><path id="e15ubjloqk8g41" d="M129.450000,1255.900000L125.150000,1262.140000C121.480000,1262.370000,117.810000,1262.490000,114.150000,1262.890000C112.040000,1263.120000,111.150000,1262.370000,110.640000,1260.390000C109.490000,1256.030000,108.040000,1251.740000,106.890000,1247.390000C106.420000,1245.590000,105.620000,1245.070000,103.790000,1245.260000C99.300000,1245.730000,94.790000,1245.910000,90.290000,1246.380000C88.290000,1246.590000,87.290000,1246,86.730000,1243.960000C85.650000,1239.800000,84.210000,1235.720000,83.150000,1231.550000C82.600000,1229.350000,81.800000,1228.440000,79.300000,1228.780000C74.940000,1229.370000,70.510000,1229.430000,66.120000,1229.880000C64.120000,1230.080000,63.310000,1229.400000,62.820000,1227.530000C61.630000,1223.060000,60.210000,1218.660000,58.980000,1214.210000C58.540000,1212.610000,57.810000,1212.030000,56.090000,1212.210000C51.700000,1212.670000,47.280000,1212.820000,42.900000,1213.310000C40.530000,1213.570000,39.330000,1213.030000,38.710000,1210.490000C37.760000,1206.660000,36.280000,1202.960000,35.030000,1199.210000L39.340000,1192.970000C40.580000,1196.970000,41.910000,1200.970000,43.010000,1204.970000C43.520000,1206.820000,44.330000,1207.510000,46.310000,1207.310000C50.900000,1206.830000,55.530000,1206.710000,60.120000,1206.190000C62.060000,1205.970000,62.700000,1206.650000,63.120000,1208.350000C64.300000,1212.700000,65.730000,1216.990000,66.870000,1221.350000C67.390000,1223.350000,68.390000,1224,70.410000,1223.800000C74.900000,1223.360000,79.410000,1223.210000,83.910000,1222.710000C85.750000,1222.500000,86.550000,1222.940000,87.030000,1224.710000C88.150000,1228.970000,89.640000,1233.150000,90.670000,1237.430000C91.260000,1239.920000,92.450000,1240.540000,94.860000,1240.260000C99.130000,1239.770000,103.450000,1239.690000,107.730000,1239.190000C109.730000,1238.960000,110.520000,1239.630000,111.020000,1241.500000C112.180000,1245.860000,113.620000,1250.150000,114.780000,1254.500000C115.280000,1256.370000,116.130000,1257.050000,118.100000,1256.820000C121.910000,1256.450000,125.690000,1256.220000,129.450000,1255.900000Z" transform="matrix(1 0 0 1 -1.41540200000001 -2.91746299999986)" fill="rgb(0,23,158)" stroke="none" stroke-width="1"/><path id="e15ubjloqk8g42" d="M188.280000,1170.650000L183.970000,1176.890000C180.410000,1177.120000,176.830000,1177.170000,173.310000,1177.640000C170.890000,1177.960000,169.960000,1177.070000,169.400000,1174.860000C168.300000,1170.590000,166.870000,1166.410000,165.730000,1162.150000C165.260000,1160.380000,164.460000,1159.820000,162.630000,1160.010000C158.140000,1160.480000,153.630000,1160.650000,149.130000,1161.120000C147.130000,1161.330000,146.130000,1160.820000,145.550000,1158.730000C144.500000,1154.550000,143.060000,1150.480000,141.990000,1146.310000C141.430000,1144.120000,140.640000,1143.180000,138.130000,1143.520000C133.770000,1144.120000,129.340000,1144.180000,124.950000,1144.620000C123.010000,1144.810000,122.150000,1144.180000,121.650000,1142.280000C120.490000,1137.810000,119.050000,1133.410000,117.810000,1128.960000C117.370000,1127.370000,116.650000,1126.780000,114.920000,1126.960000C110.530000,1127.420000,106.110000,1127.560000,101.740000,1128.060000C99.360000,1128.320000,98.170000,1127.780000,97.550000,1125.240000C96.610000,1121.410000,95.130000,1117.700000,93.880000,1113.940000L98.180000,1107.710000C99.420000,1111.710000,100.760000,1115.710000,101.840000,1119.710000C102.350000,1121.600000,103.190000,1122.250000,105.140000,1122.060000C109.740000,1121.610000,114.370000,1121.470000,118.950000,1120.940000C120.890000,1120.720000,121.540000,1121.400000,121.950000,1123.090000C123.130000,1127.450000,124.580000,1131.730000,125.690000,1136.090000C126.220000,1138.090000,127.200000,1138.750000,129.220000,1138.550000C133.610000,1138.110000,138.040000,1138.020000,142.410000,1137.460000C144.550000,1137.180000,145.410000,1137.720000,145.940000,1139.780000C147.030000,1144.050000,148.510000,1148.220000,149.590000,1152.490000C150.140000,1154.690000,151.160000,1155.300000,153.350000,1155.060000C157.730000,1154.570000,162.150000,1154.450000,166.540000,1153.980000C168.540000,1153.760000,169.360000,1154.360000,169.860000,1156.270000C171,1160.630000,172.450000,1164.920000,173.620000,1169.270000C174.120000,1171.120000,174.980000,1171.830000,176.940000,1171.590000C180.740000,1171.220000,184.510000,1171,188.280000,1170.650000Z" transform="matrix(1 0 0 1 -1.41540200000001 -2.91746299999986)" fill="rgb(0,23,158)" stroke="none" stroke-width="1"/><path id="e15ubjloqk8g43" d="M204.780000,1146.740000L200.830000,1152.460000C197.060000,1152.720000,193.280000,1152.910000,189.510000,1153.300000C187.690000,1153.490000,186.860000,1152.910000,186.390000,1151.140000C185.190000,1146.680000,183.760000,1142.270000,182.550000,1137.810000C182.070000,1136.070000,181.220000,1135.470000,179.410000,1135.650000C174.810000,1136.110000,170.190000,1136.330000,165.590000,1136.790000C163.790000,1136.960000,162.940000,1136.420000,162.460000,1134.630000C161.270000,1130.170000,159.830000,1125.770000,158.610000,1121.310000C158.140000,1119.590000,157.320000,1118.940000,155.490000,1119.130000C150.990000,1119.590000,146.490000,1119.780000,141.980000,1120.250000C139.980000,1120.450000,138.980000,1120.140000,138.440000,1117.910000C137.440000,1113.520000,135.870000,1109.250000,134.700000,1104.910000C134.190000,1103,133.270000,1102.450000,131.320000,1102.660000C126.830000,1103.140000,122.320000,1103.330000,117.810000,1103.780000C115.910000,1103.970000,115.060000,1103.490000,114.540000,1101.500000C113.490000,1097.500000,112.030000,1093.500000,110.740000,1089.500000L115.040000,1083.260000C116.290000,1087.380000,117.650000,1091.480000,118.730000,1095.640000C119.220000,1097.480000,120.080000,1097.920000,121.840000,1097.750000C126.440000,1097.300000,131.070000,1097.100000,135.660000,1096.610000C137.510000,1096.420000,138.330000,1097.040000,138.800000,1098.760000C140.030000,1103.210000,141.480000,1107.610000,142.650000,1112.080000C143.120000,1113.860000,143.900000,1114.450000,145.720000,1114.270000C150.220000,1113.820000,154.720000,1113.660000,159.230000,1113.160000C161.290000,1112.930000,162.280000,1113.470000,162.820000,1115.530000C163.930000,1119.790000,165.380000,1123.970000,166.480000,1128.240000C166.990000,1130.240000,167.760000,1131.020000,169.940000,1130.770000C174.320000,1130.270000,178.750000,1130.190000,183.120000,1129.660000C185.420000,1129.390000,186.290000,1130.190000,186.830000,1132.310000C187.930000,1136.580000,189.390000,1140.760000,190.490000,1145.030000C190.990000,1146.970000,191.870000,1147.480000,193.820000,1147.290000C197.460000,1147,201.120000,1146.910000,204.780000,1146.740000Z" transform="matrix(1 0 0 1 -1.41540200000001 -2.91746299999986)" fill="rgb(0,23,158)" stroke="none" stroke-width="1"/><path id="e15ubjloqk8g44" d="M51.910000,1174.780000L56.220000,1168.540000C57.440000,1172.540000,58.820000,1176.540000,59.830000,1180.600000C60.360000,1182.730000,61.370000,1183.180000,63.370000,1182.980000C67.860000,1182.520000,72.370000,1182.350000,76.860000,1181.880000C78.710000,1181.680000,79.510000,1182.310000,79.980000,1184.040000C81.210000,1188.490000,82.660000,1192.880000,83.840000,1197.350000C84.310000,1199.130000,85.110000,1199.710000,86.930000,1199.530000C91.420000,1199.080000,95.930000,1198.920000,100.420000,1198.420000C102.480000,1198.190000,103.480000,1198.710000,104.010000,1200.780000C105.110000,1205.050000,106.610000,1209.220000,107.640000,1213.500000C108.200000,1215.790000,109.270000,1216.240000,111.410000,1216C115.790000,1215.520000,120.210000,1215.380000,124.590000,1214.910000C126.590000,1214.690000,127.420000,1215.380000,127.910000,1217.240000C129.080000,1221.600000,130.510000,1225.890000,131.660000,1230.240000C132.160000,1232.140000,133.060000,1232.710000,135,1232.530000C138.640000,1232.190000,142.300000,1232.140000,145.950000,1231.970000L142,1237.690000C138.230000,1237.950000,134.460000,1238.140000,130.700000,1238.520000C128.880000,1238.700000,128.040000,1238.110000,127.570000,1236.350000C126.370000,1231.890000,124.940000,1227.490000,123.740000,1223.030000C123.270000,1221.270000,122.410000,1220.690000,120.610000,1220.870000C116.010000,1221.320000,111.390000,1221.550000,106.790000,1222.010000C105.010000,1222.180000,104.120000,1221.680000,103.650000,1219.880000C102.490000,1215.510000,101.060000,1211.220000,99.900000,1206.880000C99.380000,1204.880000,98.560000,1204.130000,96.400000,1204.390000C92.020000,1204.900000,87.600000,1205.010000,83.210000,1205.480000C81.210000,1205.700000,80.210000,1205.240000,79.640000,1203.110000C78.640000,1198.940000,77.110000,1194.870000,76.080000,1190.700000C75.470000,1188.240000,74.330000,1187.610000,71.870000,1187.920000C67.600000,1188.480000,63.280000,1188.580000,58.990000,1189C57.130000,1189.180000,56.240000,1188.740000,55.720000,1186.720000C54.680000,1182.680000,53.210000,1178.750000,51.910000,1174.780000Z" transform="matrix(1 0 0 1 -1.41540200000001 -2.91746299999986)" fill="rgb(0,23,158)" stroke="none" stroke-width="1"/></g><clipPath id="e15ubjloqk8g45" transform="matrix(1 0 0 1 1427.00999999999999 1175.48000000000002)"><circle id="e15ubjloqk8g46" r="56.260000" transform="matrix(1 0 0 1 -1312.74540200000024 1.28253700000019)" fill="none" stroke="none" stroke-width="1"/></clipPath></g></g></g></g></svg>